# xmcd
#
# Track frame offsets:
#	150
#	15615
#	26890
#	35991
#	50229
#	60275
#	69480
#	83666
#	94778
#	104968
#
# Disc length: 1539 seconds
#
# Revision: 2
# Processed by: cddbd v1.4PL0 Copyright (c) Steve Scherf et al.
# Submitted via: EZCDDA 4.3.2
#
DISCID=8b06010a
DTITLE=Paul Dwayne - Noel Avec Mes Amis
DYEAR=1900
DGENRE=
TTITLE0=Cantiques De Noel
TTITLE1=Noel Chaque Année
TTITLE2=Le Viellard Pleur Ses Ennuis
TTITLE3=Je M'appelle Noel
TTITLE4=Pere Noel Va Venir
TTITLE5=Les Beaux Jours De noel
TTITLE6=C'est Noel,Je Suis Aimé
TTITLE7=Feter A Ma Maison
TTITLE8=Joyeux Noel A Ma Belle
TTITLE9=Noel Avec Mes Amis
EXTD=
EXTT0=
EXTT1=
EXTT2=
EXTT3=
EXTT4=
EXTT5=
EXTT6=
EXTT7=
EXTT8=
EXTT9=
PLAYORDER=
